<svg width="162" height="162" viewBox="0 0 162 162" fill="none" xmlns="http://www.w3.org/2000/svg">
<circle cx="81" cy="81" r="81" fill="url(#paint0_linear)"/>
<path d="M54.8641 30.7462C50.6481 29.383 40.7297 29.7538 38.2509 32.9773C31.8038 33.102 24.2412 38.929 23.2487 46.6163C22.2674 54.2237 24.4538 57.7573 25.2321 63.4788C26.1143 69.9611 29.7582 72.0339 32.6717 72.9017C36.8637 78.4395 41.3195 78.2029 48.8006 78.2029C63.4097 78.2029 70.3682 68.4284 70.9835 51.8248C71.3543 41.7818 65.4633 34.176 54.8641 30.7462Z" fill="#D1D3D4"/>
<path d="M65.4921 63.3238C65.4713 57.1883 64.8064 54.7319 63.2194 52.5328C61.805 50.575 59.9959 48.9992 56.0292 48.4414C57.5171 49.1238 58.9427 51.4796 59.1281 52.7805C59.3135 54.083 59.5005 55.1362 58.3226 53.8337C53.6031 48.6188 48.4665 50.6725 43.3731 47.4857C39.8155 45.261 38.7336 42.7982 38.7336 42.7982C38.7336 42.7982 38.2988 46.0841 32.9066 49.4307C31.3435 50.4008 29.4784 52.5616 28.4428 55.7531C27.6996 58.0465 27.9298 60.0922 27.9298 63.5891V63.7025C29.0006 74.11 32.6604 81.7589 46.6957 81.7589C60.9836 81.7589 64.4564 73.9262 65.4921 63.3238Z" fill="#FFDC5D"/>
<path d="M46.6958 76.1652C42.9448 76.1652 40.9822 74.3113 40.7713 74.0988C40.1464 73.4739 40.1464 72.4638 40.7713 71.8389C41.3898 71.2204 42.3902 71.2156 43.0151 71.823C43.0966 71.8981 44.3033 72.9689 46.6958 72.9689C49.1234 72.9689 50.3285 71.8677 50.3796 71.8198C51.0157 71.2236 52.0209 71.2412 52.6299 71.8661C53.2356 72.4942 53.2372 73.4819 52.6203 74.0972C52.4093 74.3097 50.4467 76.1652 46.6958 76.1652ZM48.294 68.1743H45.0976C44.2154 68.1743 43.4994 67.4599 43.4994 66.5761C43.4994 65.6923 44.2154 64.9779 45.0976 64.9779H48.294C49.1778 64.9779 49.8922 65.6923 49.8922 66.5761C49.8922 67.4599 49.1778 68.1743 48.294 68.1743Z" fill="#C1694F"/>
<path d="M38.7049 64.1788C37.8227 64.1788 37.1067 63.4644 37.1067 62.5806V60.9824C37.1067 60.1002 37.8227 59.3842 38.7049 59.3842C39.5871 59.3842 40.3031 60.1002 40.3031 60.9824V62.5806C40.3031 63.4644 39.5871 64.1788 38.7049 64.1788ZM54.6868 64.1788C53.803 64.1788 53.0886 63.4644 53.0886 62.5806V60.9824C53.0886 60.1002 53.803 59.3842 54.6868 59.3842C55.5706 59.3842 56.285 60.1002 56.285 60.9824V62.5806C56.285 63.4644 55.5706 64.1788 54.6868 64.1788Z" fill="#662113"/>
<path d="M58.6823 57.786H53.8877C53.0039 57.786 52.2895 57.0701 52.2895 56.1879C52.2895 55.3057 53.0039 54.5897 53.8877 54.5897H58.6823C59.5661 54.5897 60.2805 55.3057 60.2805 56.1879C60.2805 57.0701 59.5661 57.786 58.6823 57.786ZM39.504 57.786H34.7094C33.8272 57.786 33.1112 57.0701 33.1112 56.1879C33.1112 55.3057 33.8272 54.5897 34.7094 54.5897H39.504C40.3862 54.5897 41.1022 55.3057 41.1022 56.1879C41.1022 57.0701 40.3862 57.786 39.504 57.786Z" fill="#D1D3D4"/>
<path d="M140 59.5C140 56.1865 138.321 53.5 136.25 53.5C136.232 53.5 136.218 53.5075 136.201 53.5075C133.932 44.056 127.091 37.1875 119 37.1875C110.909 37.1875 104.066 44.0575 101.799 53.5075C101.782 53.506 101.766 53.5 101.75 53.5C99.6785 53.5 98 56.1865 98 59.5C98 62.6605 99.5315 65.2225 101.471 65.455C103.306 75.4285 110.448 82 119 82C127.55 82 134.694 75.4285 136.528 65.455C138.468 65.2225 140 62.6605 140 59.5Z" fill="#FFDC5D"/>
<path d="M111.5 61C110.672 61 110 60.3295 110 59.5V56.5C110 55.672 110.672 55 111.5 55C112.328 55 113 55.672 113 56.5V59.5C113 60.3295 112.328 61 111.5 61ZM126.5 61C125.671 61 125 60.3295 125 59.5V56.5C125 55.672 125.671 55 126.5 55C127.33 55 128 55.672 128 56.5V59.5C128 60.3295 127.33 61 126.5 61Z" fill="#662113"/>
<path d="M119 76C112.699 76 110.764 74.3845 110.44 74.0605C109.853 73.474 109.853 72.526 110.44 71.9395C111.007 71.371 111.916 71.3545 112.504 71.8855C112.624 71.9725 114.154 73 119 73C124.033 73 125.489 71.8915 125.504 71.8795C126.089 71.296 127.006 71.3245 127.594 71.911C128.18 72.4975 128.147 73.4755 127.562 74.062C127.237 74.3845 125.302 76 119 76ZM120.5 68.5H117.5C116.672 68.5 116 67.8295 116 67C116 66.1705 116.672 65.5 117.5 65.5H120.5C121.33 65.5 122 66.1705 122 67C122 67.8295 121.33 68.5 120.5 68.5Z" fill="#C1694F"/>
<path d="M119 31C131 31 138.5 40 138.5 47.5C138.5 55 137 58 135.5 55L132.5 49C132.5 49 123.5 49 120.5 46C120.5 46 125 55 116 46C116 46 117.5 52 108.5 44.5C108.5 44.5 104 47.5 102.5 55C102.085 57.0805 99.5 55 99.5 47.5C99.5 40 105.5 31 119 31Z" fill="#E1E8ED"/>
<path d="M84.0149 85C93.0149 85 108.015 89.5 108.015 109C108.015 128.5 108.015 133 103.515 133C99.0149 133 93.0149 128.5 84.0149 128.5C75.0149 128.5 69.1424 133 64.5149 133C59.5004 133 60.0149 115 60.0149 109C60.0149 89.5 75.0149 85 84.0149 85Z" fill="#E95F28"/>
<path d="M66.015 108.343C66.015 95.554 74.0745 85.186 84.015 85.186C93.9555 85.186 102.015 95.554 102.015 108.343C102.015 121.132 93.9555 131.5 84.015 131.5C74.0745 131.5 66.015 121.132 66.015 108.343Z" fill="#FFDC5D"/>
<path d="M84.015 125.5C80.4945 125.5 78.6525 123.76 78.4545 123.561C77.868 122.974 77.868 122.026 78.4545 121.44C79.035 120.859 79.974 120.855 80.5605 121.425C80.637 121.495 81.7695 122.5 84.015 122.5C86.2935 122.5 87.4245 121.465 87.4725 121.422C88.0695 120.862 89.013 120.879 89.5845 121.465C90.153 122.055 90.1545 122.982 89.5755 123.561C89.3775 123.76 87.5355 125.5 84.015 125.5Z" fill="#DF1F32"/>
<path d="M85.5149 118H82.5149C81.6869 118 81.0149 117.329 81.0149 116.5C81.0149 115.671 81.6869 115 82.5149 115H85.5149C86.3444 115 87.0149 115.671 87.0149 116.5C87.0149 117.329 86.3444 118 85.5149 118Z" fill="#C1694F"/>
<path d="M61.6109 116.5C61.5659 116.013 61.5149 115.529 61.5149 115C61.5149 107.5 66.0149 115.843 66.0149 110.5C66.0149 105.156 69.0149 104.5 72.0149 101.5L76.5149 97C76.5149 97 84.0149 101.5 90.0149 101.5C96.0149 101.5 102.015 104.5 102.015 110.5C102.015 116.5 106.515 107.5 106.515 115C106.515 115.533 106.465 116.009 106.428 116.5H108.001C108.015 114.285 108.015 111.802 108.015 109C108.015 89.5 93.0149 82 84.0149 82C75.0149 82 60.0149 89.5 60.0149 109C60.0149 110.737 59.9729 113.479 60.0329 116.5H61.6109Z" fill="#E95F28"/>
<path d="M76.5149 113.5C75.6869 113.5 75.0149 112.83 75.0149 112V109C75.0149 108.172 75.6869 107.5 76.5149 107.5C77.3429 107.5 78.0149 108.172 78.0149 109V112C78.0149 112.83 77.3429 113.5 76.5149 113.5ZM91.5149 113.5C90.6854 113.5 90.0149 112.83 90.0149 112V109C90.0149 108.172 90.6854 107.5 91.5149 107.5C92.3444 107.5 93.0149 108.172 93.0149 109V112C93.0149 112.83 92.3444 113.5 91.5149 113.5Z" fill="#662113"/>
<defs>
<linearGradient id="paint0_linear" x1="77.0625" y1="-59.0889" x2="128.489" y2="156.095" gradientUnits="userSpaceOnUse">
<stop stop-color="#4457FF"/>
<stop offset="1" stop-color="#1900B5"/>
</linearGradient>
</defs>
</svg>
