<svg width="103" height="42" viewBox="0 0 103 42" fill="none" xmlns="http://www.w3.org/2000/svg">
<path d="M0 5C0 2.23858 2.23858 0 5 0H98C100.761 0 103 2.23858 103 5V33.1518C103 38.0343 99.141 41.9923 94.3808 41.9923H8.61925C3.85897 41.9923 0 38.0343 0 33.1518V5Z" fill="#F3F3F3" fill-opacity="0.5"/>
<path d="M11.8846 24.1654C11.8846 23.0714 12.8542 22.1846 14.0503 22.1846H42.2036C43.3997 22.1846 44.3693 23.0714 44.3693 24.1654C44.3693 25.2593 43.3997 26.1462 42.2036 26.1462H14.0503C12.8542 26.1462 11.8846 25.2593 11.8846 24.1654Z" fill="#02D0ED"/>
<path d="M58.6307 24.1654C58.6307 23.0714 59.6003 22.1846 60.7964 22.1846H88.9497C90.1458 22.1846 91.1154 23.0714 91.1154 24.1654C91.1154 25.2593 90.1458 26.1462 88.9497 26.1462H60.7964C59.6003 26.1462 58.6307 25.2593 58.6307 24.1654Z" fill="#E95318"/>
<path d="M15.8434 34.6711H15.0096V36.3851H14.2615V31.9367H15.7754C16.2721 31.9367 16.6555 32.0518 16.9255 32.282C17.1956 32.5121 17.3306 32.8451 17.3306 33.281C17.3306 33.5784 17.2606 33.8279 17.1207 34.0295C16.9827 34.2291 16.7895 34.3829 16.5411 34.4908L17.508 36.3453V36.3851H16.7067L15.8434 34.6711ZM15.0096 34.0509H15.7783C16.0306 34.0509 16.2277 33.9857 16.3697 33.8554C16.5116 33.723 16.5825 33.5427 16.5825 33.3146C16.5825 33.0763 16.5165 32.892 16.3844 32.7616C16.2543 32.6313 16.0592 32.5641 15.799 32.56H15.0096V34.0509Z" fill="url(#paint0_linear)"/>
<path d="M19.3796 36.4462C18.9242 36.4462 18.5546 36.2985 18.2708 36.0032C17.9889 35.7058 17.848 35.3106 17.848 34.8177V34.7261C17.848 34.3961 17.9091 34.1018 18.0313 33.8431C18.1555 33.5824 18.329 33.3798 18.5517 33.2352C18.7744 33.0906 19.0228 33.0183 19.2968 33.0183C19.7324 33.0183 20.0685 33.1618 20.305 33.449C20.5435 33.7362 20.6628 34.1426 20.6628 34.668V34.9675H18.5724C18.5941 35.2404 18.6818 35.4563 18.8355 35.6151C18.9912 35.774 19.1864 35.8535 19.421 35.8535C19.7501 35.8535 20.0182 35.716 20.2252 35.441L20.6125 35.8229C20.4844 36.0205 20.3129 36.1742 20.098 36.2842C19.8852 36.3922 19.6457 36.4462 19.3796 36.4462ZM19.2938 33.614C19.0967 33.614 18.937 33.6853 18.8148 33.8279C18.6946 33.9704 18.6177 34.169 18.5842 34.4236H19.9532V34.3686C19.9374 34.1202 19.8733 33.9328 19.761 33.8065C19.6486 33.6782 19.4929 33.614 19.2938 33.614Z" fill="url(#paint1_linear)"/>
<path d="M22.5373 35.8535C22.7167 35.8535 22.8655 35.7995 22.9838 35.6915C23.102 35.5836 23.1651 35.4502 23.173 35.2913H23.8501C23.8422 35.497 23.7801 35.6895 23.6638 35.8687C23.5475 36.0459 23.3898 36.1865 23.1907 36.2903C22.9916 36.3942 22.7768 36.4462 22.5462 36.4462C22.0987 36.4462 21.7439 36.2965 21.4818 35.997C21.2196 35.6976 21.0885 35.2842 21.0885 34.7566V34.6803C21.0885 34.1772 21.2186 33.7749 21.4788 33.4735C21.739 33.17 22.0938 33.0183 22.5432 33.0183C22.9236 33.0183 23.2331 33.1333 23.4716 33.3635C23.7121 33.5916 23.8382 33.892 23.8501 34.2648H23.173C23.1651 34.0753 23.102 33.9195 22.9838 33.7973C22.8675 33.6751 22.7186 33.614 22.5373 33.614C22.3047 33.614 22.1253 33.7016 21.9992 33.8768C21.873 34.0499 21.809 34.3136 21.807 34.668V34.7872C21.807 35.1457 21.8691 35.4135 21.9933 35.5907C22.1194 35.7659 22.3008 35.8535 22.5373 35.8535Z" fill="url(#paint2_linear)"/>
<path d="M24.2581 34.7017C24.2581 34.3778 24.3202 34.0865 24.4444 33.8279C24.5685 33.5672 24.743 33.3676 24.9677 33.2291C25.1924 33.0885 25.4506 33.0183 25.7424 33.0183C26.174 33.0183 26.5239 33.1618 26.792 33.449C27.062 33.7362 27.2079 34.1171 27.2296 34.5917L27.2325 34.7658C27.2325 35.0917 27.1714 35.383 27.0492 35.6396C26.929 35.8962 26.7555 36.0948 26.5288 36.2353C26.3041 36.3759 26.0439 36.4462 25.7483 36.4462C25.2969 36.4462 24.9352 36.2914 24.6632 35.9818C24.3931 35.6701 24.2581 35.2557 24.2581 34.7383V34.7017ZM24.9766 34.7658C24.9766 35.106 25.0446 35.3728 25.1806 35.5663C25.3166 35.7577 25.5058 35.8535 25.7483 35.8535C25.9907 35.8535 26.179 35.7557 26.313 35.5602C26.449 35.3646 26.517 35.0785 26.517 34.7017C26.517 34.3676 26.447 34.1028 26.3071 33.9073C26.1691 33.7118 25.9809 33.614 25.7424 33.614C25.5078 33.614 25.3215 33.7108 25.1835 33.9043C25.0456 34.0957 24.9766 34.3829 24.9766 34.7658Z" fill="url(#paint3_linear)"/>
<path d="M28.9208 35.4441L29.5979 33.0794H30.34L29.2312 36.3851H28.6074L27.4898 33.0794H28.2348L28.9208 35.4441Z" fill="url(#paint4_linear)"/>
<path d="M32.1584 36.4462C31.703 36.4462 31.3334 36.2985 31.0496 36.0032C30.7677 35.7058 30.6268 35.3106 30.6268 34.8177V34.7261C30.6268 34.3961 30.6879 34.1018 30.8101 33.8431C30.9343 33.5824 31.1078 33.3798 31.3305 33.2352C31.5532 33.0906 31.8016 33.0183 32.0756 33.0183C32.5112 33.0183 32.8473 33.1618 33.0838 33.449C33.3223 33.7362 33.4416 34.1426 33.4416 34.668V34.9675H31.3512C31.3729 35.2404 31.4606 35.4563 31.6143 35.6151C31.7701 35.774 31.9652 35.8535 32.1998 35.8535C32.5289 35.8535 32.797 35.716 33.004 35.441L33.3913 35.8229C33.2632 36.0205 33.0917 36.1742 32.8768 36.2842C32.664 36.3922 32.4245 36.4462 32.1584 36.4462ZM32.0726 33.614C31.8755 33.614 31.7158 33.6853 31.5936 33.8279C31.4734 33.9704 31.3965 34.169 31.363 34.4236H32.732V34.3686C32.7162 34.1202 32.6521 33.9328 32.5398 33.8065C32.4274 33.6782 32.2717 33.614 32.0726 33.614Z" fill="url(#paint5_linear)"/>
<path d="M35.6768 33.7576C35.5822 33.7413 35.4846 33.7332 35.3841 33.7332C35.0549 33.7332 34.8332 33.8635 34.7189 34.1242V36.3851H34.0004V33.0794H34.6863L34.7041 33.449C34.8775 33.1618 35.118 33.0183 35.4255 33.0183C35.528 33.0183 35.6128 33.0325 35.6798 33.061L35.6768 33.7576Z" fill="url(#paint6_linear)"/>
<path d="M37.4804 36.4462C37.0251 36.4462 36.6555 36.2985 36.3716 36.0032C36.0898 35.7058 35.9488 35.3106 35.9488 34.8177V34.7261C35.9488 34.3961 36.0099 34.1018 36.1322 33.8431C36.2563 33.5824 36.4298 33.3798 36.6525 33.2352C36.8753 33.0906 37.1236 33.0183 37.3976 33.0183C37.8332 33.0183 38.1693 33.1618 38.4058 33.449C38.6444 33.7362 38.7636 34.1426 38.7636 34.668V34.9675H36.6732C36.6949 35.2404 36.7826 35.4563 36.9364 35.6151C37.0921 35.774 37.2872 35.8535 37.5218 35.8535C37.851 35.8535 38.119 35.716 38.326 35.441L38.7133 35.8229C38.5852 36.0205 38.4137 36.1742 38.1989 36.2842C37.986 36.3922 37.7465 36.4462 37.4804 36.4462ZM37.3947 33.614C37.1975 33.614 37.0379 33.6853 36.9157 33.8279C36.7954 33.9704 36.7186 34.169 36.6851 34.4236H38.054V34.3686C38.0382 34.1202 37.9742 33.9328 37.8618 33.8065C37.7495 33.6782 37.5937 33.614 37.3947 33.614Z" fill="url(#paint7_linear)"/>
<path d="M39.1894 34.7078C39.1894 34.1986 39.3037 33.7902 39.5323 33.4826C39.761 33.173 40.0675 33.0183 40.4519 33.0183C40.7909 33.0183 41.0649 33.1405 41.2738 33.3849V31.6923H41.9923V36.3851H41.3418L41.3064 36.0429C41.0915 36.3117 40.8047 36.4462 40.446 36.4462C40.0714 36.4462 39.7679 36.2903 39.5353 35.9787C39.3047 35.6671 39.1894 35.2434 39.1894 34.7078ZM39.9078 34.7719C39.9078 35.108 39.9699 35.3707 40.0941 35.5602C40.2203 35.7475 40.3987 35.8412 40.6293 35.8412C40.923 35.8412 41.1378 35.7058 41.2738 35.4349V34.0234C41.1418 33.7586 40.9289 33.6262 40.6352 33.6262C40.4026 33.6262 40.2232 33.722 40.0971 33.9134C39.9709 34.1028 39.9078 34.389 39.9078 34.7719Z" fill="url(#paint8_linear)"/>
<path d="M23.329 11.1792H24.2506C24.7155 11.1749 25.0829 11.0521 25.3528 10.8106C25.6268 10.569 25.7638 10.2195 25.7638 9.76191C25.7638 9.32127 25.6496 8.98019 25.4213 8.73869C25.1971 8.49295 24.8525 8.37007 24.3876 8.37007C23.9807 8.37007 23.6465 8.49083 23.385 8.73233C23.1235 8.9696 22.9927 9.28102 22.9927 9.66658H21.4795C21.4795 9.19204 21.602 8.75987 21.8469 8.37007C22.096 7.98028 22.4406 7.67733 22.8806 7.46125C23.3248 7.24093 23.8209 7.13077 24.3689 7.13077C25.2739 7.13077 25.9838 7.3638 26.4986 7.82986C27.0175 8.29169 27.2769 8.93571 27.2769 9.76191C27.2769 10.1771 27.1462 10.569 26.8846 10.9377C26.6273 11.302 26.2931 11.5774 25.8821 11.7639C26.3802 11.9376 26.758 12.2109 27.0154 12.5837C27.2769 12.9566 27.4077 13.4014 27.4077 13.9183C27.4077 14.7488 27.1275 15.4097 26.5671 15.9012C26.0108 16.3927 25.278 16.6385 24.3689 16.6385C23.4971 16.6385 22.7831 16.4012 22.2268 15.9267C21.6705 15.4521 21.3923 14.8208 21.3923 14.0327H22.9055C22.9055 14.4395 23.0384 14.77 23.3041 15.0242C23.5739 15.2784 23.9351 15.4055 24.3876 15.4055C24.8567 15.4055 25.2262 15.2784 25.496 15.0242C25.7658 14.77 25.9008 14.4014 25.9008 13.9183C25.9008 13.4311 25.7596 13.0561 25.4773 12.7934C25.195 12.5307 24.7757 12.3994 24.2194 12.3994H23.329V11.1792Z" fill="url(#paint9_linear)"/>
<path d="M34.8616 8.11586L31.2374 16.5114H29.6495L33.2674 8.49718H28.5784V7.25788H34.8616V8.11586Z" fill="url(#paint10_linear)"/>
<path d="M69.839 13.2129H71.005V14.4522H69.839V16.5114H68.2738V14.4522H64.222L64.1769 13.5116L68.2222 7.25788H69.839V13.2129ZM65.8195 13.2129H68.2738V9.34881L68.1578 9.55218L65.8195 13.2129Z" fill="url(#paint11_linear)"/>
<path d="M78.3483 16.5114H72.042V15.45L75.1662 12.088C75.6171 11.5923 75.937 11.1792 76.126 10.8487C76.3192 10.514 76.4158 10.1792 76.4158 9.84453C76.4158 9.40389 76.2892 9.04798 76.0358 8.77682C75.7867 8.50566 75.4496 8.37007 75.0245 8.37007C74.5177 8.37007 74.1248 8.5226 73.8457 8.82766C73.5665 9.13272 73.427 9.55006 73.427 10.0797H71.8617C71.8617 9.51617 71.9905 9.00985 72.2482 8.56074C72.5101 8.10738 72.8816 7.75572 73.3626 7.50574C73.8478 7.25576 74.4061 7.13077 75.0374 7.13077C75.9478 7.13077 76.6649 7.35745 77.1888 7.8108C77.717 8.25991 77.9811 8.88274 77.9811 9.67929C77.9811 10.1411 77.848 10.6262 77.5818 11.1347C77.3198 11.6389 76.8882 12.213 76.287 12.857L73.9938 15.2784H78.3483V16.5114Z" fill="url(#paint12_linear)"/>
<path d="M81.35 11.1792H82.3034C82.7844 11.1749 83.1644 11.0521 83.4435 10.8106C83.727 10.569 83.8687 10.2195 83.8687 9.76191C83.8687 9.32127 83.7506 8.98019 83.5144 8.73869C83.2825 8.49295 82.9261 8.37007 82.4451 8.37007C82.0243 8.37007 81.6786 8.49083 81.408 8.73233C81.1375 8.9696 81.0022 9.28102 81.0022 9.66658H79.4369C79.4369 9.19204 79.5636 8.75987 79.817 8.37007C80.0746 7.98028 80.4311 7.67733 80.8863 7.46125C81.3458 7.24093 81.8589 7.13077 82.4258 7.13077C83.362 7.13077 84.0963 7.3638 84.6288 7.82986C85.1656 8.29169 85.434 8.93571 85.434 9.76191C85.434 10.1771 85.2987 10.569 85.0282 10.9377C84.7619 11.302 84.4162 11.5774 83.9911 11.7639C84.5064 11.9376 84.8972 12.2109 85.1634 12.5837C85.434 12.9566 85.5692 13.4014 85.5692 13.9183C85.5692 14.7488 85.2794 15.4097 84.6996 15.9012C84.1242 16.3927 83.3662 16.6385 82.4258 16.6385C81.524 16.6385 80.7853 16.4012 80.2099 15.9267C79.6345 15.4521 79.3467 14.8208 79.3467 14.0327H80.912C80.912 14.4395 81.0494 14.77 81.3243 15.0242C81.6034 15.2784 81.977 15.4055 82.4451 15.4055C82.9304 15.4055 83.3126 15.2784 83.5917 15.0242C83.8708 14.77 84.0104 14.4014 84.0104 13.9183C84.0104 13.4311 83.8644 13.0561 83.5724 12.7934C83.2804 12.5307 82.8466 12.3994 82.2712 12.3994H81.35V11.1792Z" fill="url(#paint13_linear)"/>
<path d="M64.9493 36.3859H64.1769V31.9968H64.9493V36.3859Z" fill="url(#paint14_linear)"/>
<path d="M66.5217 33.1242L66.5431 33.501C66.7883 33.2096 67.1102 33.0639 67.5086 33.0639C68.1993 33.0639 68.5507 33.4528 68.563 34.2305V36.3859H67.8182V34.2727C67.8182 34.0657 67.7722 33.913 67.6803 33.8145C67.5904 33.714 67.4422 33.6638 67.2358 33.6638C66.9355 33.6638 66.7117 33.7974 66.5646 34.0647V36.3859H65.8198V33.1242H66.5217Z" fill="url(#paint15_linear)"/>
<path d="M69.5867 36.3859V33.6668H69.081V33.1242H69.5867V32.8258C69.5867 32.464 69.6889 32.1847 69.8932 31.9877C70.0975 31.7908 70.3836 31.6923 70.7514 31.6923C70.8822 31.6923 71.0211 31.7104 71.1683 31.7466L71.1499 32.3193C71.0681 32.3032 70.9731 32.2952 70.8648 32.2952C70.5093 32.2952 70.3315 32.4751 70.3315 32.8348V33.1242H71.0058V33.6668H70.3315V36.3859H69.5867Z" fill="url(#paint16_linear)"/>
<path d="M72.9368 36.4462C72.4648 36.4462 72.0816 36.3005 71.7874 36.0091C71.4952 35.7156 71.3491 35.3258 71.3491 34.8394V34.749C71.3491 34.4234 71.4124 34.133 71.5391 33.8778C71.6679 33.6206 71.8477 33.4206 72.0786 33.2779C72.3095 33.1352 72.5669 33.0639 72.8509 33.0639C73.3025 33.0639 73.6509 33.2056 73.8961 33.4889C74.1434 33.7723 74.267 34.1732 74.267 34.6917V34.9871H72.1C72.1225 35.2564 72.2134 35.4695 72.3728 35.6262C72.5342 35.783 72.7365 35.8613 72.9797 35.8613C73.3209 35.8613 73.5988 35.7257 73.8134 35.4544L74.2149 35.8312C74.0821 36.0261 73.9043 36.1779 73.6816 36.2864C73.4609 36.3929 73.2126 36.4462 72.9368 36.4462ZM72.8479 33.6517C72.6435 33.6517 72.478 33.7221 72.3513 33.8627C72.2267 34.0034 72.147 34.1994 72.1123 34.4506H73.5314V34.3963C73.515 34.1511 73.4486 33.9662 73.3322 33.8416C73.2157 33.715 73.0543 33.6517 72.8479 33.6517Z" fill="url(#paint17_linear)"/>
<path d="M76.2102 35.8613C76.3962 35.8613 76.5504 35.8081 76.673 35.7016C76.7956 35.5951 76.861 35.4634 76.8692 35.3067H77.5711C77.5629 35.5097 77.4985 35.6996 77.378 35.8764C77.2574 36.0513 77.094 36.1899 76.8876 36.2924C76.6812 36.3949 76.4585 36.4462 76.2194 36.4462C75.7556 36.4462 75.3878 36.2984 75.116 36.003C74.8442 35.7076 74.7084 35.2996 74.7084 34.7791V34.7038C74.7084 34.2074 74.8432 33.8105 75.1129 33.5131C75.3827 33.2136 75.7505 33.0639 76.2163 33.0639C76.6107 33.0639 76.9315 33.1774 77.1788 33.4045C77.428 33.6296 77.5588 33.926 77.5711 34.2938H76.8692C76.861 34.1069 76.7956 33.9532 76.673 33.8326C76.5525 33.712 76.3982 33.6517 76.2102 33.6517C75.9691 33.6517 75.7832 33.7381 75.6524 33.911C75.5216 34.0818 75.4552 34.342 75.4531 34.6917V34.8093C75.4531 35.163 75.5175 35.4273 75.6462 35.6021C75.777 35.7749 75.965 35.8613 76.2102 35.8613Z" fill="url(#paint18_linear)"/>
<path d="M79.0668 32.3314V33.1242H79.6522V33.6668H79.0668V35.4875C79.0668 35.6121 79.0913 35.7026 79.1404 35.7589C79.1915 35.8131 79.2814 35.8402 79.4101 35.8402C79.4959 35.8402 79.5828 35.8302 79.6706 35.8101V36.3768C79.501 36.423 79.3376 36.4462 79.1802 36.4462C78.6081 36.4462 78.322 36.1357 78.322 35.5147V33.6668H77.7764V33.1242H78.322V32.3314H79.0668Z" fill="url(#paint19_linear)"/>
<path d="M81.6843 36.4462C81.2123 36.4462 80.8292 36.3005 80.535 36.0091C80.2428 35.7156 80.0967 35.3258 80.0967 34.8394V34.749C80.0967 34.4234 80.16 34.133 80.2867 33.8778C80.4154 33.6206 80.5952 33.4206 80.8261 33.2779C81.057 33.1352 81.3145 33.0639 81.5985 33.0639C82.0501 33.0639 82.3985 33.2056 82.6437 33.4889C82.8909 33.7723 83.0146 34.1732 83.0146 34.6917V34.9871H80.8476C80.8701 35.2564 80.961 35.4695 81.1204 35.6262C81.2818 35.783 81.4841 35.8613 81.7272 35.8613C82.0685 35.8613 82.3464 35.7257 82.5609 35.4544L82.9625 35.8312C82.8296 36.0261 82.6519 36.1779 82.4291 36.2864C82.2085 36.3929 81.9602 36.4462 81.6843 36.4462ZM81.5955 33.6517C81.3911 33.6517 81.2256 33.7221 81.0989 33.8627C80.9743 34.0034 80.8946 34.1994 80.8598 34.4506H82.2789V34.3963C82.2626 34.1511 82.1962 33.9662 82.0797 33.8416C81.9633 33.715 81.8018 33.6517 81.5955 33.6517Z" fill="url(#paint20_linear)"/>
<path d="M83.4559 34.7309C83.4559 34.2285 83.5744 33.8256 83.8115 33.5221C84.0485 33.2166 84.3662 33.0639 84.7647 33.0639C85.1161 33.0639 85.4002 33.1845 85.6168 33.4256V31.7556H86.3616V36.3859H85.6873L85.6505 36.0482C85.4277 36.3135 85.1304 36.4462 84.7586 36.4462C84.3703 36.4462 84.0556 36.2924 83.8145 35.9849C83.5755 35.6775 83.4559 35.2595 83.4559 34.7309ZM84.2007 34.7942C84.2007 35.1258 84.2651 35.3851 84.3938 35.572C84.5246 35.7568 84.7095 35.8493 84.9486 35.8493C85.253 35.8493 85.4758 35.7156 85.6168 35.4484V34.0557C85.4799 33.7944 85.2592 33.6638 84.9547 33.6638C84.7136 33.6638 84.5277 33.7582 84.3969 33.9471C84.2661 34.134 84.2007 34.4164 84.2007 34.7942Z" fill="url(#paint21_linear)"/>
<path fill-rule="evenodd" clip-rule="evenodd" d="M45.9538 7.13077L49.1231 11.7214H46.5907V16.6385H45.3169V11.7214H42.7846L45.9538 7.13077ZM46.5907 10.3652H46.606L46.5907 10.3431V10.3652ZM45.3169 10.3431V10.3652H45.3017L45.3169 10.3431Z" fill="#FF4F4F"/>
<path fill-rule="evenodd" clip-rule="evenodd" d="M57.0462 17.4308L60.2154 13.2227H57.6831V8.71538H56.4093V13.2227H53.877L57.0462 17.4308ZM57.6831 14.4658H57.6983L57.6831 14.4861V14.4658ZM56.4093 14.4861V14.4658H56.394L56.4093 14.4861Z" fill="#FF4F4F"/>
<defs>
<linearGradient id="paint0_linear" x1="27.4529" y1="29.9584" x2="27.7259" y2="36.6223" gradientUnits="userSpaceOnUse">
<stop stop-color="#7280FF"/>
<stop offset="1" stop-color="#351ADC"/>
</linearGradient>
<linearGradient id="paint1_linear" x1="27.4529" y1="29.9584" x2="27.7259" y2="36.6223" gradientUnits="userSpaceOnUse">
<stop stop-color="#7280FF"/>
<stop offset="1" stop-color="#351ADC"/>
</linearGradient>
<linearGradient id="paint2_linear" x1="27.4529" y1="29.9584" x2="27.7259" y2="36.6223" gradientUnits="userSpaceOnUse">
<stop stop-color="#7280FF"/>
<stop offset="1" stop-color="#351ADC"/>
</linearGradient>
<linearGradient id="paint3_linear" x1="27.4529" y1="29.9584" x2="27.7259" y2="36.6223" gradientUnits="userSpaceOnUse">
<stop stop-color="#7280FF"/>
<stop offset="1" stop-color="#351ADC"/>
</linearGradient>
<linearGradient id="paint4_linear" x1="27.4529" y1="29.9584" x2="27.7259" y2="36.6223" gradientUnits="userSpaceOnUse">
<stop stop-color="#7280FF"/>
<stop offset="1" stop-color="#351ADC"/>
</linearGradient>
<linearGradient id="paint5_linear" x1="27.4529" y1="29.9584" x2="27.7259" y2="36.6223" gradientUnits="userSpaceOnUse">
<stop stop-color="#7280FF"/>
<stop offset="1" stop-color="#351ADC"/>
</linearGradient>
<linearGradient id="paint6_linear" x1="27.4529" y1="29.9584" x2="27.7259" y2="36.6223" gradientUnits="userSpaceOnUse">
<stop stop-color="#7280FF"/>
<stop offset="1" stop-color="#351ADC"/>
</linearGradient>
<linearGradient id="paint7_linear" x1="27.4529" y1="29.9584" x2="27.7259" y2="36.6223" gradientUnits="userSpaceOnUse">
<stop stop-color="#7280FF"/>
<stop offset="1" stop-color="#351ADC"/>
</linearGradient>
<linearGradient id="paint8_linear" x1="27.4529" y1="29.9584" x2="27.7259" y2="36.6223" gradientUnits="userSpaceOnUse">
<stop stop-color="#7280FF"/>
<stop offset="1" stop-color="#351ADC"/>
</linearGradient>
<linearGradient id="paint9_linear" x1="27.7996" y1="3.66288" x2="29.9894" y2="16.6438" gradientUnits="userSpaceOnUse">
<stop stop-color="#7280FF"/>
<stop offset="1" stop-color="#351ADC"/>
</linearGradient>
<linearGradient id="paint10_linear" x1="27.7996" y1="3.66288" x2="29.9894" y2="16.6438" gradientUnits="userSpaceOnUse">
<stop stop-color="#7280FF"/>
<stop offset="1" stop-color="#351ADC"/>
</linearGradient>
<linearGradient id="paint11_linear" x1="74.3531" y1="3.66288" x2="75.7553" y2="16.8643" gradientUnits="userSpaceOnUse">
<stop stop-color="#7280FF"/>
<stop offset="1" stop-color="#351ADC"/>
</linearGradient>
<linearGradient id="paint12_linear" x1="74.3531" y1="3.66288" x2="75.7553" y2="16.8643" gradientUnits="userSpaceOnUse">
<stop stop-color="#7280FF"/>
<stop offset="1" stop-color="#351ADC"/>
</linearGradient>
<linearGradient id="paint13_linear" x1="74.3531" y1="3.66288" x2="75.7553" y2="16.8643" gradientUnits="userSpaceOnUse">
<stop stop-color="#7280FF"/>
<stop offset="1" stop-color="#351ADC"/>
</linearGradient>
<linearGradient id="paint14_linear" x1="74.73" y1="29.9584" x2="75.071" y2="36.6161" gradientUnits="userSpaceOnUse">
<stop stop-color="#7280FF"/>
<stop offset="1" stop-color="#351ADC"/>
</linearGradient>
<linearGradient id="paint15_linear" x1="74.73" y1="29.9584" x2="75.071" y2="36.6161" gradientUnits="userSpaceOnUse">
<stop stop-color="#7280FF"/>
<stop offset="1" stop-color="#351ADC"/>
</linearGradient>
<linearGradient id="paint16_linear" x1="74.73" y1="29.9584" x2="75.071" y2="36.6161" gradientUnits="userSpaceOnUse">
<stop stop-color="#7280FF"/>
<stop offset="1" stop-color="#351ADC"/>
</linearGradient>
<linearGradient id="paint17_linear" x1="74.73" y1="29.9584" x2="75.071" y2="36.6161" gradientUnits="userSpaceOnUse">
<stop stop-color="#7280FF"/>
<stop offset="1" stop-color="#351ADC"/>
</linearGradient>
<linearGradient id="paint18_linear" x1="74.73" y1="29.9584" x2="75.071" y2="36.6161" gradientUnits="userSpaceOnUse">
<stop stop-color="#7280FF"/>
<stop offset="1" stop-color="#351ADC"/>
</linearGradient>
<linearGradient id="paint19_linear" x1="74.73" y1="29.9584" x2="75.071" y2="36.6161" gradientUnits="userSpaceOnUse">
<stop stop-color="#7280FF"/>
<stop offset="1" stop-color="#351ADC"/>
</linearGradient>
<linearGradient id="paint20_linear" x1="74.73" y1="29.9584" x2="75.071" y2="36.6161" gradientUnits="userSpaceOnUse">
<stop stop-color="#7280FF"/>
<stop offset="1" stop-color="#351ADC"/>
</linearGradient>
<linearGradient id="paint21_linear" x1="74.73" y1="29.9584" x2="75.071" y2="36.6161" gradientUnits="userSpaceOnUse">
<stop stop-color="#7280FF"/>
<stop offset="1" stop-color="#351ADC"/>
</linearGradient>
</defs>
</svg>
