<svg width="79" height="79" viewBox="0 0 79 79" fill="none" xmlns="http://www.w3.org/2000/svg">
<path d="M39.5 79C61.3152 79 79 61.3152 79 39.5C79 17.6848 61.3152 0 39.5 0C17.6848 0 0 17.6848 0 39.5C0 61.3152 17.6848 79 39.5 79Z" fill="#FFCC4D"/>
<path d="M27.4304 43.8889C30.4603 43.8889 32.9166 40.4502 32.9166 36.2083C32.9166 31.9665 30.4603 28.5278 27.4304 28.5278C24.4006 28.5278 21.9443 31.9665 21.9443 36.2083C21.9443 40.4502 24.4006 43.8889 27.4304 43.8889Z" fill="#664500"/>
<path d="M51.5694 43.8889C54.5993 43.8889 57.0555 40.4502 57.0555 36.2083C57.0555 31.9665 54.5993 28.5278 51.5694 28.5278C48.5395 28.5278 46.0833 31.9665 46.0833 36.2083C46.0833 40.4502 48.5395 43.8889 51.5694 43.8889Z" fill="#664500"/>
<path d="M63.639 26.3334C51.451 26.3334 46.5179 16.7502 46.3138 16.3421C45.7718 15.258 46.2107 13.9392 47.2947 13.3971C48.3744 12.8551 49.6911 13.2918 50.2353 14.3693C50.3999 14.6897 54.2314 21.9445 63.639 21.9445C64.8525 21.9445 65.8334 22.9276 65.8334 24.1389C65.8334 25.3525 64.8525 26.3334 63.639 26.3334ZM15.3612 26.3202C14.1499 26.3202 13.1667 25.3371 13.1667 24.1258C13.1667 22.9144 14.1499 21.9313 15.3612 21.9313C26.5156 21.9313 28.5191 15.0847 28.6003 14.7928C28.9185 13.6341 30.1144 12.9319 31.2753 13.2369C32.4384 13.542 33.1428 14.7138 32.8509 15.8812C32.7434 16.307 30.0727 26.3202 15.3612 26.3202V26.3202Z" fill="#664500"/>
<path d="M78.9296 37.4548L70.1409 39.2389L34.6194 62.2981L50.2394 64.4113L75.8815 48.5872C77.4242 47.6414 78.0628 46.7548 78.5105 44.7535C78.9581 42.7522 78.9296 37.4548 78.9296 37.4548V37.4548Z" fill="#FFAC33"/>
<path d="M51.5368 64.4706C51.5126 64.374 49.0241 58.1528 39.5002 58.1528C29.9763 58.1528 27.4878 64.374 27.4637 64.4706C27.3474 64.938 27.5603 65.4164 27.9728 65.6644C28.3854 65.9101 28.923 65.8531 29.2807 65.5327C29.3005 65.5151 31.5037 63.6389 39.5002 63.6389C47.3783 63.6389 49.632 65.4603 49.7176 65.5327C49.926 65.7302 50.1981 65.8333 50.4725 65.8333C50.6568 65.8333 50.8433 65.7872 51.0123 65.6929C51.4424 65.4471 51.6575 64.949 51.5368 64.4706Z" fill="#664500"/>
<path d="M77.8459 34.5164C76.0267 32.0937 72.5858 31.6022 70.1631 33.4192L32.4055 61.745C33.8231 61.214 35.7191 60.7707 38.144 60.5995C38.7058 60.56 43.9812 59.2236 43.9812 59.2236L46.8186 61.4971C46.8186 61.4971 48.8178 62.3024 49.4454 62.6799L76.753 42.1947C79.1735 40.3799 79.6629 36.9391 77.8459 34.5164V34.5164Z" fill="#CCD6DD"/>
<path d="M62.95 45.7981C61.9669 44.4902 61.223 43.2854 59.9151 44.2663L38.1418 60.5996C38.7036 60.5601 39.2391 60.5074 39.8601 60.503C42.8445 60.4833 45.1268 60.931 46.8165 61.4949L63.4679 49.0041C64.7758 48.0232 63.931 47.1081 62.95 45.7981V45.7981Z" fill="#DA2F47"/>
<path d="M40.8147 55.3615L43.5226 58.8682L45.1487 57.5625L42.522 54.0799L40.8147 55.3615ZM45.6929 51.7165L48.4031 55.2232L50.0292 53.9175L47.4024 50.4349L45.6929 51.7165ZM50.4856 48.1637L53.1936 51.6704L54.8196 50.3647L52.1929 46.8821L50.4856 48.1637ZM55.2717 44.5209L57.9818 48.0254L59.6079 46.7219L56.9812 43.2393L55.2717 44.5209ZM60.1829 40.9198L62.893 44.4265L64.5169 43.1208L61.8923 39.6383L60.1829 40.9198ZM64.879 37.3692L67.5891 40.8759L69.213 39.5702L66.5884 36.0876L64.879 37.3692Z" fill="#67757F"/>
<path d="M49.4431 62.6799L51.2096 63.8254C51.2096 63.8254 50.7773 63.031 50.0554 62.2323L49.4431 62.6799Z" fill="#452E04"/>
</svg>
