<svg width="42" height="44" viewBox="0 0 42 44" fill="none" xmlns="http://www.w3.org/2000/svg">
<g filter="url(#filter0_d)">
<path d="M25.9151 4.46137C23.2801 3.61853 17.0811 3.84777 15.5318 5.84073C11.5024 5.9178 6.77575 9.52036 6.15545 14.273C5.54215 18.9763 6.9086 21.161 7.39505 24.6983C7.94643 28.706 10.2238 29.9875 12.0448 30.524C14.6648 33.9478 17.4497 33.8015 22.1254 33.8015C31.256 33.8015 35.6051 27.7584 35.9897 17.4932C36.2214 11.2841 32.5396 6.5818 25.9151 4.46137Z" fill="#D1D3D4"/>
<path d="M32.5576 24.6026C32.5446 20.8093 32.1291 19.2906 31.1372 17.931C30.2532 16.7206 29.1225 15.7464 26.6433 15.4015C27.5732 15.8234 28.4642 17.2799 28.5801 18.0842C28.696 18.8895 28.8128 19.5406 28.0767 18.7353C25.127 15.5112 21.9166 16.7809 18.7332 14.8106C16.5098 13.4352 15.8335 11.9126 15.8335 11.9126C15.8335 11.9126 15.5618 13.9441 12.1916 16.0131C11.2147 16.6129 10.0491 17.9488 9.4018 19.922C8.93732 21.3399 9.08116 22.6046 9.08116 24.7666V24.8367C9.7504 31.2711 12.0378 36.0001 20.8099 36.0001C29.7398 36.0001 31.9103 31.1575 32.5576 24.6026Z" fill="#FFDC5D"/>
<path d="M20.8099 32.5416C18.4655 32.5416 17.2389 31.3954 17.1071 31.264C16.7165 30.8777 16.7165 30.2532 17.1071 29.8668C17.4936 29.4845 18.1189 29.4815 18.5095 29.857C18.5604 29.9034 19.3146 30.5654 20.8099 30.5654C22.3272 30.5654 23.0803 29.8846 23.1123 29.855C23.5098 29.4864 24.1381 29.4973 24.5187 29.8836C24.8972 30.272 24.8982 30.8826 24.5127 31.263C24.3808 31.3944 23.1542 32.5416 20.8099 32.5416ZM21.8087 27.6012H19.811C19.2596 27.6012 18.8121 27.1595 18.8121 26.6131C18.8121 26.0667 19.2596 25.625 19.811 25.625H21.8087C22.3611 25.625 22.8076 26.0667 22.8076 26.6131C22.8076 27.1595 22.3611 27.6012 21.8087 27.6012Z" fill="#C1694F"/>
<path d="M15.8155 25.131C15.2641 25.131 14.8167 24.6893 14.8167 24.1429V23.1548C14.8167 22.6094 15.2641 22.1667 15.8155 22.1667C16.3669 22.1667 16.8144 22.6094 16.8144 23.1548V24.1429C16.8144 24.6893 16.3669 25.131 15.8155 25.131ZM25.8042 25.131C25.2518 25.131 24.8053 24.6893 24.8053 24.1429V23.1548C24.8053 22.6094 25.2518 22.1667 25.8042 22.1667C26.3566 22.1667 26.8031 22.6094 26.8031 23.1548V24.1429C26.8031 24.6893 26.3566 25.131 25.8042 25.131Z" fill="#662113"/>
<path d="M28.3014 21.1788H25.3048C24.7524 21.1788 24.3059 20.7361 24.3059 20.1907C24.3059 19.6453 24.7524 19.2026 25.3048 19.2026H28.3014C28.8537 19.2026 29.3002 19.6453 29.3002 20.1907C29.3002 20.7361 28.8537 21.1788 28.3014 21.1788ZM16.3149 21.1788H13.3183C12.767 21.1788 12.3195 20.7361 12.3195 20.1907C12.3195 19.6453 12.767 19.2026 13.3183 19.2026H16.3149C16.8663 19.2026 17.3138 19.6453 17.3138 20.1907C17.3138 20.7361 16.8663 21.1788 16.3149 21.1788Z" fill="#D1D3D4"/>
</g>
<defs>
<filter id="filter0_d" x="0" y="0" width="42" height="44.0001" filterUnits="userSpaceOnUse" color-interpolation-filters="sRGB">
<feFlood flood-opacity="0" result="BackgroundImageFix"/>
<feColorMatrix in="SourceAlpha" type="matrix" values="0 0 0 0 0 0 0 0 0 0 0 0 0 0 0 0 0 0 127 0"/>
<feOffset dy="2"/>
<feGaussianBlur stdDeviation="3"/>
<feColorMatrix type="matrix" values="0 0 0 0 0 0 0 0 0 0 0 0 0 0 0 0 0 0 0.25 0"/>
<feBlend mode="normal" in2="BackgroundImageFix" result="effect1_dropShadow"/>
<feBlend mode="normal" in="SourceGraphic" in2="effect1_dropShadow" result="shape"/>
</filter>
</defs>
</svg>
