<svg width="12" height="18" viewBox="0 0 12 18" fill="none" xmlns="http://www.w3.org/2000/svg">
<path d="M11.6139 1.78935C12.0499 1.45028 12.1284 0.822007 11.7894 0.386059C11.4503 -0.0498878 10.822 -0.128422 10.3861 0.210648L11.6139 1.78935ZM1 8.77778L0.386059 7.98843C0.142473 8.17788 0 8.46919 0 8.77778C0 9.08637 0.142473 9.37767 0.386059 9.56713L1 8.77778ZM10.3861 17.3449C10.822 17.684 11.4503 17.6054 11.7894 17.1695C12.1284 16.7335 12.0499 16.1053 11.6139 15.7662L10.3861 17.3449ZM10.3861 0.210648L0.386059 7.98843L1.61394 9.56713L11.6139 1.78935L10.3861 0.210648ZM0.386059 9.56713L10.3861 17.3449L11.6139 15.7662L1.61394 7.98843L0.386059 9.56713Z" fill="white" fill-opacity="0.9"/>
</svg>