<svg width="160" height="160" viewBox="0 0 160 160" fill="none" xmlns="http://www.w3.org/2000/svg">
<circle cx="80" cy="80" r="80" fill="url(#paint0_linear)"/>
<g filter="url(#filter0_d)">
<path d="M116.522 72.1068C116.522 70.9456 116.245 69.856 115.781 68.8657C112.685 58.8792 98.1923 59.6087 77.5776 59.1216C74.131 59.0408 76.1024 54.9709 77.3121 46.0371C78.0993 40.2266 74.3526 31.3044 68.0551 31.3044C57.6715 31.3044 67.6603 39.4949 58.4795 59.7495C53.5739 70.5717 42.6086 64.5096 42.6086 75.3802V100.125C42.6086 104.356 43.0242 108.424 48.9754 109.093C54.7443 109.742 53.447 113.853 61.7691 113.853H103.423C107.666 113.853 111.118 110.4 111.118 106.157C111.118 104.398 110.501 102.796 109.506 101.498C111.861 100.18 113.477 97.6917 113.477 94.8061C113.477 93.0517 112.863 91.4496 111.87 90.1545C114.232 88.8387 115.852 86.3478 115.852 83.4576C115.852 81.3592 115.003 79.457 113.634 78.065C115.381 76.6545 116.522 74.5215 116.522 72.1068Z" fill="#FFDB5E"/>
<path d="M88.9677 79.801H108.83C111.531 79.801 114.066 78.3559 115.446 76.0312C116.014 75.0732 115.698 73.8335 114.737 73.2633C113.779 72.6931 112.54 73.014 111.969 73.972C111.316 75.0778 110.109 75.7611 108.828 75.7611H88.4898C86.4745 75.7611 84.8355 74.1221 84.8355 72.1068C84.8355 70.0915 86.4745 68.4525 88.4898 68.4525H102.08C103.195 68.4525 104.1 67.5475 104.1 66.4325C104.1 65.3175 103.195 64.4126 102.08 64.4126H88.4875C84.2445 64.4126 80.7933 67.8638 80.7933 72.1068C80.7933 74.473 81.8899 76.5668 83.5751 77.9796C82.1553 79.3762 81.2712 81.3153 81.2712 83.4576C81.2712 85.8307 82.3746 87.9314 84.0691 89.3419C82.6586 90.7363 81.7837 92.6685 81.7837 94.8061C81.7837 97.3916 83.0741 99.6724 85.0363 101.069C83.8267 102.429 83.0695 104.199 83.0695 106.157C83.0695 110.4 86.5207 113.851 90.7637 113.851H103.423C106.124 113.851 108.661 112.408 110.042 110.084C110.612 109.126 110.296 107.886 109.338 107.316C108.377 106.75 107.138 107.062 106.57 108.02C105.912 109.126 104.705 109.811 103.423 109.811H90.7637C88.7484 109.811 87.1093 108.172 87.1093 106.157C87.1093 104.142 88.7484 102.503 90.7637 102.503H105.783C108.484 102.503 111.023 101.057 112.401 98.7328C112.971 97.7725 112.655 96.5329 111.697 95.965C110.73 95.3855 109.495 95.711 108.929 96.6691C108.262 97.7933 107.085 98.4627 105.783 98.4627H89.4778C87.4625 98.4627 85.8235 96.8214 85.8235 94.8061C85.8235 92.7908 87.4625 91.1518 89.4778 91.1518H108.156C110.857 91.1518 113.394 89.709 114.774 87.3843C115.344 86.4263 115.028 85.1867 114.07 84.6165C113.107 84.0486 111.87 84.3625 111.302 85.3205C110.635 86.4425 109.458 87.1119 108.156 87.1119H88.9677C86.9524 87.1119 85.3133 85.4729 85.3133 83.4576C85.3133 81.4423 86.9501 79.801 88.9677 79.801Z" fill="#EE9547"/>
</g>
<defs>
<filter id="filter0_d" x="32.6086" y="25.3044" width="93.913" height="102.549" filterUnits="userSpaceOnUse" color-interpolation-filters="sRGB">
<feFlood flood-opacity="0" result="BackgroundImageFix"/>
<feColorMatrix in="SourceAlpha" type="matrix" values="0 0 0 0 0 0 0 0 0 0 0 0 0 0 0 0 0 0 127 0"/>
<feOffset dy="4"/>
<feGaussianBlur stdDeviation="5"/>
<feColorMatrix type="matrix" values="0 0 0 0 0 0 0 0 0 0 0 0 0 0 0 0 0 0 0.25 0"/>
<feBlend mode="normal" in2="BackgroundImageFix" result="effect1_dropShadow"/>
<feBlend mode="normal" in="SourceGraphic" in2="effect1_dropShadow" result="shape"/>
</filter>
<linearGradient id="paint0_linear" x1="76.1111" y1="-58.3594" x2="126.902" y2="154.168" gradientUnits="userSpaceOnUse">
<stop stop-color="#4457FF"/>
<stop offset="1" stop-color="#1900B5"/>
</linearGradient>
</defs>
</svg>
