<svg width="16" height="22" viewBox="0 0 16 22" fill="none" xmlns="http://www.w3.org/2000/svg">
<g filter="url(#filter0_i)">
<path d="M7.96973 11.2981C9.95028 11.2981 13.5297 4.11651 15.3392 0.18885C15.4996 -0.159437 16.0091 0.0128975 15.9316 0.390432C15.4181 2.89003 14.5642 6.63207 13.5557 9.42158C11.8997 14.0018 9.18127 21.1499 7.96973 21.1499V11.2981Z" fill="#480EC3"/>
</g>
<g filter="url(#filter1_i)">
<path d="M7.96973 11.2979C5.98921 11.2979 2.40988 4.11645 0.60041 0.188856C0.439954 -0.159428 -0.0695257 0.0129051 0.00802755 0.390434C0.521498 2.88999 1.37532 6.63196 2.38386 9.42142C4.03982 14.0015 6.7582 21.1495 7.96973 21.1495V11.2979Z" fill="#02D0ED"/>
</g>
<defs>
<filter id="filter0_i" x="7.96973" y="-2" width="9.96982" height="23.1499" filterUnits="userSpaceOnUse" color-interpolation-filters="sRGB">
<feFlood flood-opacity="0" result="BackgroundImageFix"/>
<feBlend mode="normal" in="SourceGraphic" in2="BackgroundImageFix" result="shape"/>
<feColorMatrix in="SourceAlpha" type="matrix" values="0 0 0 0 0 0 0 0 0 0 0 0 0 0 0 0 0 0 127 0" result="hardAlpha"/>
<feOffset dx="2" dy="-2"/>
<feGaussianBlur stdDeviation="2"/>
<feComposite in2="hardAlpha" operator="arithmetic" k2="-1" k3="1"/>
<feColorMatrix type="matrix" values="0 0 0 0 0 0 0 0 0 0 0 0 0 0 0 0 0 0 0.25 0"/>
<feBlend mode="normal" in2="shape" result="effect1_innerShadow"/>
</filter>
<filter id="filter1_i" x="0" y="-2" width="9.96968" height="23.1495" filterUnits="userSpaceOnUse" color-interpolation-filters="sRGB">
<feFlood flood-opacity="0" result="BackgroundImageFix"/>
<feBlend mode="normal" in="SourceGraphic" in2="BackgroundImageFix" result="shape"/>
<feColorMatrix in="SourceAlpha" type="matrix" values="0 0 0 0 0 0 0 0 0 0 0 0 0 0 0 0 0 0 127 0" result="hardAlpha"/>
<feOffset dx="2" dy="-2"/>
<feGaussianBlur stdDeviation="2"/>
<feComposite in2="hardAlpha" operator="arithmetic" k2="-1" k3="1"/>
<feColorMatrix type="matrix" values="0 0 0 0 0 0 0 0 0 0 0 0 0 0 0 0 0 0 0.25 0"/>
<feBlend mode="normal" in2="shape" result="effect1_innerShadow"/>
</filter>
</defs>
</svg>
