<svg width="40" height="46" viewBox="0 0 40 46" fill="none" xmlns="http://www.w3.org/2000/svg">
<g filter="url(#filter0_d)">
<path d="M34 23C34 20.791 32.881 19 31.5 19C31.488 19 31.479 19.005 31.467 19.005C29.955 12.704 25.394 8.125 20 8.125C14.606 8.125 10.044 12.705 8.533 19.005C8.521 19.004 8.511 19 8.5 19C7.119 19 6 20.791 6 23C6 25.107 7.021 26.815 8.314 26.97C9.537 33.619 14.299 38 20 38C25.7 38 30.463 33.619 31.685 26.97C32.979 26.815 34 25.107 34 23Z" fill="#FFDC5D"/>
<path d="M15 24C14.448 24 14 23.553 14 23V21C14 20.448 14.448 20 15 20C15.552 20 16 20.448 16 21V23C16 23.553 15.552 24 15 24ZM25 24C24.447 24 24 23.553 24 23V21C24 20.448 24.447 20 25 20C25.553 20 26 20.448 26 21V23C26 23.553 25.553 24 25 24Z" fill="#662113"/>
<path d="M20 34C15.799 34 14.509 32.923 14.293 32.707C13.902 32.316 13.902 31.684 14.293 31.293C14.671 30.914 15.277 30.903 15.669 31.257C15.749 31.315 16.769 32 20 32C23.355 32 24.326 31.261 24.336 31.253C24.726 30.864 25.337 30.883 25.729 31.274C26.12 31.665 26.098 32.317 25.708 32.708C25.491 32.923 24.201 34 20 34ZM21 29H19C18.448 29 18 28.553 18 28C18 27.447 18.448 27 19 27H21C21.553 27 22 27.447 22 28C22 28.553 21.553 29 21 29Z" fill="#C1694F"/>
<path d="M20 4C28 4 33 10 33 15C33 20 32 22 31 20L29 16C29 16 23 16 21 14C21 14 24 20 18 14C18 14 19 18 13 13C13 13 10 15 9 20C8.723 21.387 7 20 7 15C7 10 11 4 20 4Z" fill="#E1E8ED"/>
</g>
<defs>
<filter id="filter0_d" x="0" y="0" width="40" height="46" filterUnits="userSpaceOnUse" color-interpolation-filters="sRGB">
<feFlood flood-opacity="0" result="BackgroundImageFix"/>
<feColorMatrix in="SourceAlpha" type="matrix" values="0 0 0 0 0 0 0 0 0 0 0 0 0 0 0 0 0 0 127 0"/>
<feOffset dy="2"/>
<feGaussianBlur stdDeviation="3"/>
<feColorMatrix type="matrix" values="0 0 0 0 0 0 0 0 0 0 0 0 0 0 0 0 0 0 0.25 0"/>
<feBlend mode="normal" in2="BackgroundImageFix" result="effect1_dropShadow"/>
<feBlend mode="normal" in="SourceGraphic" in2="effect1_dropShadow" result="shape"/>
</filter>
</defs>
</svg>
