<svg width="36" height="36" viewBox="0 0 36 36" fill="none" xmlns="http://www.w3.org/2000/svg">
<path d="M36 18C36 27.941 27.941 36 18 36C8.06 36 0 27.941 0 18C0 8.06 8.06 0 18 0C27.941 0 36 8.06 36 18Z" fill="#FFCC4D"/>
<path d="M30.6 17.2C30.486 17.115 28.669 15.774 25.954 14.856C25.98 14.741 26 14.623 26 14.5C26 14.131 25.861 13.797 25.641 13.536C27.443 13.016 28.975 13 29.002 13C29.553 12.998 30 12.55 29.999 11.998C29.998 11.447 29.552 11 29 11C28.779 11 23.549 11.038 20.293 14.293C20.007 14.579 19.921 15.009 20.076 15.383C20.23 15.756 20.596 16 21 16C25.59 16 29.363 18.772 29.401 18.801C29.581 18.935 29.791 18.999 29.999 18.999C30.304 18.999 30.604 18.86 30.801 18.599C31.131 18.156 31.041 17.531 30.6 17.2ZM15.707 14.293C12.452 11.038 7.221 11 7 11C6.448 11 6.001 11.447 6.001 11.998C6 12.55 6.447 12.998 6.999 13C7.025 13 8.557 13.016 10.36 13.536C10.139 13.797 10 14.131 10 14.5C10 14.623 10.019 14.741 10.047 14.856C7.331 15.774 5.514 17.115 5.4 17.2C4.958 17.531 4.869 18.158 5.2 18.599C5.396 18.862 5.697 19 6.001 19C6.209 19 6.42 18.935 6.6 18.8C6.637 18.772 10.387 16 15 16C15.404 16 15.769 15.756 15.924 15.383C16.079 15.009 15.993 14.579 15.707 14.293ZM16 29C18 24 29 24 29 26C29 27 21 25 16 29Z" fill="#664500"/>
<path d="M18.406 18.033C21.084 20.709 14.432 33.557 13.156 34.833C12.106 35.883 8.956 35.883 7.906 33.783C6.856 31.683 3.706 33.783 2.656 32.733C0.556001 30.633 3.706 29.583 2.656 27.483C1.606 25.383 -0.493999 24.333 1.606 22.233C3.706 20.133 8.956 21.183 12.106 19.083C15.256 16.983 17.355 16.983 18.406 18.033Z" fill="#CCD6DD"/>
<path d="M17.322 19.872C17.306 19.81 17.269 19.759 17.243 19.702C17.213 19.636 17.193 19.567 17.149 19.508C16.988 19.29 16.744 19.134 16.455 19.093H16.454C16.317 19.074 16.18 19.082 16.048 19.115C15.957 19.138 15.879 19.186 15.799 19.232C15.761 19.253 15.719 19.262 15.684 19.288C15.573 19.37 15.478 19.473 15.406 19.593C12.472 24.483 5.464 27.537 5.393 27.568C4.86 27.797 4.614 28.414 4.843 28.947C5.014 29.345 5.401 29.583 5.808 29.583C5.946 29.583 6.086 29.556 6.221 29.498C6.444 29.402 10.276 27.728 13.646 24.786C11.578 28.611 8.416 30.781 8.373 30.811C7.892 31.134 7.763 31.785 8.085 32.267C8.288 32.569 8.62 32.734 8.959 32.734C9.159 32.734 9.361 32.677 9.54 32.558C9.813 32.375 16.243 28.009 17.347 20.284C17.365 20.144 17.356 20.005 17.322 19.872Z" fill="#F5F8FA"/>
</svg>
