<svg width="44" height="46" viewBox="0 0 44 46" fill="none" xmlns="http://www.w3.org/2000/svg">
<g filter="url(#filter0_d)">
<path d="M22.005 6C28.0031 6 38 9 38 22C38 35 38 38 35.0009 38C32.0019 38 28.0031 35 22.005 35C16.0068 35 12.0931 38 9.00901 38C5.66705 38 6.00994 26 6.00994 22C6.00994 9 16.0068 6 22.005 6Z" fill="#E95F28"/>
<path d="M10.0087 21.562C10.0087 13.036 15.38 6.12402 22.005 6.12402C28.6299 6.12402 34.0012 13.036 34.0012 21.562C34.0012 30.088 28.6299 37 22.005 37C15.38 37 10.0087 30.088 10.0087 21.562Z" fill="#FFDC5D"/>
<path d="M22.005 33.0001C19.6587 33.0001 18.4311 31.8401 18.2991 31.7071C17.9083 31.3161 17.9083 30.6841 18.2991 30.2931C18.686 29.9061 19.3118 29.9031 19.7027 30.2831C19.7537 30.3301 20.5085 31.0001 22.005 31.0001C23.5235 31.0001 24.2773 30.3101 24.3093 30.2811C24.7071 29.9081 25.336 29.9191 25.7168 30.3101C26.0957 30.7031 26.0967 31.3211 25.7108 31.7071C25.5789 31.8401 24.3513 33.0001 22.005 33.0001Z" fill="#DF1F32"/>
<path d="M23.0047 28H21.0053C20.4535 28 20.0056 27.553 20.0056 27C20.0056 26.447 20.4535 26 21.0053 26H23.0047C23.5575 26 24.0044 26.447 24.0044 27C24.0044 27.553 23.5575 28 23.0047 28Z" fill="#C1694F"/>
<path d="M7.07361 27C7.04362 26.675 7.00963 26.353 7.00963 26C7.00963 21 10.0087 26.562 10.0087 23C10.0087 19.437 12.0081 19 14.0075 17L17.0065 14C17.0065 14 22.005 17 26.0037 17C30.0025 17 34.0012 19 34.0012 23C34.0012 27 37.0003 21 37.0003 26C37.0003 26.355 36.9673 26.673 36.9423 27H37.991C38 25.523 38 23.868 38 22C38 9 28.0031 4 22.005 4C16.0068 4 6.00994 9 6.00994 22C6.00994 23.158 5.98195 24.986 6.02194 27H7.07361Z" fill="#E95F28"/>
<path d="M17.0065 25C16.4547 25 16.0068 24.553 16.0068 24V22C16.0068 21.448 16.4547 21 17.0065 21C17.5584 21 18.0062 21.448 18.0062 22V24C18.0062 24.553 17.5584 25 17.0065 25ZM27.0034 25C26.4506 25 26.0037 24.553 26.0037 24V22C26.0037 21.448 26.4506 21 27.0034 21C27.5562 21 28.0031 21.448 28.0031 22V24C28.0031 24.553 27.5562 25 27.0034 25Z" fill="#662113"/>
</g>
<defs>
<filter id="filter0_d" x="0" y="0" width="44" height="46" filterUnits="userSpaceOnUse" color-interpolation-filters="sRGB">
<feFlood flood-opacity="0" result="BackgroundImageFix"/>
<feColorMatrix in="SourceAlpha" type="matrix" values="0 0 0 0 0 0 0 0 0 0 0 0 0 0 0 0 0 0 127 0"/>
<feOffset dy="2"/>
<feGaussianBlur stdDeviation="3"/>
<feColorMatrix type="matrix" values="0 0 0 0 0 0 0 0 0 0 0 0 0 0 0 0 0 0 0.25 0"/>
<feBlend mode="normal" in2="BackgroundImageFix" result="effect1_dropShadow"/>
<feBlend mode="normal" in="SourceGraphic" in2="effect1_dropShadow" result="shape"/>
</filter>
</defs>
</svg>
